<?xml version="1.0" standalone="no"?>
<!DOCTYPE svg PUBLIC "-//W3C//DTD SVG 20010904//EN"
 "http://www.w3.org/TR/2001/REC-SVG-20010904/DTD/svg10.dtd">
<svg version="1.0" xmlns="http://www.w3.org/2000/svg"
 width="48.000000pt" height="48.000000pt" viewBox="0 0 48.000000 48.000000"
 preserveAspectRatio="xMidYMid meet">

<g transform="translate(0.000000,48.000000) scale(0.100000,-0.100000)"
fill="#000000" stroke="none">
<path d="M350 310 c0 -5 7 -10 15 -10 8 0 15 -1 15 -2 -5 -26 -29 -99 -29 -89
-1 8 -9 4 -21 -12 -26 -33 -26 -45 0 -22 27 25 37 12 16 -22 l-17 -28 20 24
c13 14 21 37 21 60 0 20 9 51 21 70 16 27 17 32 5 28 -9 -4 -16 -2 -16 3 0 6
-7 10 -15 10 -8 0 -15 -4 -15 -10z"/>
<path d="M95 299 c-4 -6 -13 -8 -21 -5 -8 3 -14 1 -14 -4 0 -6 3 -10 8 -11 4
0 15 -2 25 -4 11 -2 17 3 17 16 0 21 -6 24 -15 8z"/>
<path d="M177 290 c8 -31 20 -33 25 -5 4 19 1 25 -12 25 -13 0 -17 -6 -13 -20z"/>
<path d="M235 301 c-3 -6 0 -11 7 -12 7 0 4 -4 -7 -8 -18 -7 -17 -8 7 -13 25
-5 26 -3 16 16 -15 28 -15 29 -23 17z"/>
<path d="M120 279 c0 -4 11 -9 24 -11 15 -3 23 -1 20 6 -5 12 -44 16 -44 5z"/>
<path d="M30 191 c0 -32 6 -37 28 -22 19 11 11 45 -11 49 -13 3 -17 -3 -17
-27z"/>
<path d="M82 193 c2 -17 9 -28 18 -28 9 0 16 11 18 28 3 22 -1 27 -18 27 -17
0 -21 -5 -18 -27z"/>
<path d="M130 196 c0 -14 7 -26 18 -28 27 -7 42 2 42 25 0 17 -7 22 -30 24
-25 2 -30 -1 -30 -21z"/>
<path d="M204 204 c3 -9 6 -23 6 -32 0 -21 15 -5 25 26 5 18 3 22 -15 22 -16
0 -20 -4 -16 -16z"/>
<path d="M251 198 c-5 -13 -8 -23 -7 -24 0 -1 13 -4 28 -8 26 -6 27 -5 17 24
-13 36 -26 38 -38 8z"/>
</g>
</svg>
